PathFileType	3	(X/Y/Z)	D:\minhoCalibration\240510\subject2_KPNP\preferred\preferred17.trc
DataRate	CameraRate	NumFrames	NumMarkers	Units	OrigDataRate	OrigDataStartFrame	OrigNumFrames
200.0	200.0	33	10	mm	200.0	378	194	
Frame#	Time	Left_Ankle_Outer1			Left_Ankle_Inner1			Left_Knee_Outer1			Left_Knee_Inner1			Left_Wrist1			Right_Wrist1			Right_Knee_Inner1			Right_Knee_Outer1			Right_Ankle_Inner1			Right_Ankle_Outer1			
		X1	Y1	Z1	X2	Y2	Z2	X3	Y3	Z3	X4	Y4	Z4	X5	Y5	Z5	X6	Y6	Z6	X7	Y7	Z7	X8	Y8	Z8	X9	Y9	Z9	X10	Y10	Z10	
378	1.88	-615.32007	87.969009	-743.24219	-622.55469	99.006569	-689.14355	-437.75183	507.22128	-795.81683	-468.35812	496.60339	-702.10522	-479.63531	975.24854	-880.0614	-677.56897	1093.3099	-618.73865	-708.84076	715.06091	-274.03668	-773.44824	797.66284	-272.24249	-869.33459	638.03137	-658.72614	-945.88422	701.28076	-642.26434
379	1.885	-615.94281	88.410568	-742.40399	-622.67291	100.03564	-687.37231	-437.71768	506.96252	-799.40039	-465.14905	495.95251	-704.08887	-483.10843	973.6731	-882.82031	-669.63849	1097.5383	-615.26868	-690.15527	729.32617	-260.61157	-753.19061	814.03833	-255.94383	-867.33685	653.43127	-637.98901	-941.74158	718.92181	-618.52887
380	1.89	-616.48242	89.058739	-741.51868	-621.98108	100.04031	-687.80389	-437.51648	506.48422	-802.99414	-461.62506	495.27411	-706.29504	-486.79721	971.97235	-885.66833	-661.84546	1101.5702	-612.1283	-670.81842	743.84314	-248.0898	-731.10291	830.5799	-242.45622	-865.69226	668.32831	-616.50397	-937.67474	735.93677	-594.47504
381	1.895	-616.90955	89.738106	-740.60413	-621.12701	101.8201	-686.17554	-436.77795	506.1311	-806.6217	-458.01593	494.37946	-708.57336	-491.78445	969.68005	-887.40063	-654.17352	1105.5181	-609.30951	-650.68768	758.45428	-236.67632	-708.10095	847.07623	-230.76904	-863.88043	681.23785	-595.41162	-932.74847	751.87622	-571.70447
382	1.9	-617.12018	90.823868	-739.90228	-620.71582	103.32574	-684.21301	-435.99387	505.75876	-810.11829	-453.74597	493.75351	-711.05505	-495.71902	968.31396	-889.31781	-646.97809	1109.5461	-606.92572	-629.91364	773.55243	-226.54047	-684.5592	864.17444	-219.2135	-863.03387	695.1795	-572.68988	-928.52911	768.32526	-546.5769
383	1.905	-617.15637	91.68689	-738.74316	-619.40985	105.3708	-682.58667	-435.29343	505.51004	-813.31958	-449.18414	493.17831	-713.70551	-501.67459	965.4314	-890.79877	-639.75677	1113.965	-604.72534	-608.52063	788.59167	-217.63757	-660.16986	881.44586	-208.98163	-862.86469	709.05731	-548.23419	-924.2926	784.83704	-519.56403
384	1.91	-616.75726	92.801445	-737.92902	-618.35016	107.19581	-680.97754	-434.22638	505.52917	-816.68384	-444.48032	492.75781	-716.49231	-507.13403	963.15057	-891.67578	-633.05579	1117.1919	-602.86816	-586.73572	803.58521	-210.14812	-634.95825	897.73602	-201.89642	-862.36383	721.43176	-523.53583	-919.68109	800.28711	-493.7308
385	1.915	-616.05151	94.148674	-737.01587	-616.39008	107.29162	-682.54584	-433.99265	505.60068	-819.16235	-439.71555	492.55945	-719.31079	-513.03424	960.67523	-892.12317	-624.1933	1120.6975	-600.54846	-564.67188	818.47559	-204.15791	-609.37708	914.48535	-195.35724	-861.56348	734.20593	-497.14389	-914.80164	815.61029	-466.19458
386	1.92	-615.21796	95.548798	-736.16406	-614.97424	110.25121	-679.51471	-433.72858	506.00766	-821.28931	-435.07532	492.66904	-722.08881	-519.22235	958.0838	-892.25073	-617.57074	1124.2515	-599.23767	-542.45026	833.07324	-199.5695	-584.07947	930.04272	-191.34996	-860.28967	746.57404	-469.95566	-909.23065	830.63702	-438.24442
387	1.925	-614.28888	97.128891	-735.49884	-613.33667	111.99534	-678.4411	-433.36609	506.71518	-823.05334	-430.79584	493.08582	-724.67126	-525.61859	955.43402	-891.90051	-610.81055	1127.6011	-598.08405	-520.28271	847.42053	-196.49367	-558.48578	945.29999	-189.40015	-860.61035	758.91748	-437.85593	-904.04321	845.99054	-405.66565
388	1.93	-613.14563	98.30442	-734.3692	-611.7254	113.58407	-677.8103	-433.22241	507.65277	-824.20892	-427.16193	493.9198	-726.87402	-531.61798	953.12006	-891.70831	-604.87335	1130.8223	-597.11377	-498.44925	861.18561	-194.75061	-533.09839	959.76373	-189.31236	-857.37152	770.16541	-407.62457	-896.87494	859.80481	-376.70773
389	1.935	-612.35748	100.04279	-734.10095	-609.99762	113.51777	-679.56372	-432.98471	508.9826	-824.80505	-424.14682	495.15109	-728.46576	-538.36713	950.28815	-890.08624	-598.78766	1133.9219	-596.35156	-476.8649	874.2854	-194.40616	-508.73877	973.37354	-190.45253	-854.41968	782.78143	-373.21274	-889.12115	874.85199	-342.94785
390	1.94	-611.55292	101.33184	-733.40314	-609.02386	114.58626	-679.06506	-433.64389	509.68201	-824.49786	-421.89871	496.67188	-729.24701	-544.19592	948.03308	-889.67371	-592.97266	1136.9183	-595.59271	-456.21417	886.85577	-195.03046	-484.81384	985.77948	-193.57013	-849.32635	794.87152	-337.29865	-879.52795	889.37903	-309.15393
391	1.945	-610.97192	102.53275	-732.62402	-608.24139	116.61607	-677.18549	-433.18747	511.57529	-824.15149	-420.28198	498.35458	-729.09851	-550.43457	945.55957	-887.96173	-587.93658	1139.7072	-595.40594	-436.1489	898.49744	-197.21269	-462.37305	997.14435	-197.83168	-841.94568	807.22101	-300.60977	-868.18359	903.6825	-274.39777
392	1.95	-610.39923	103.46246	-731.80322	-607.30859	117.64082	-676.7428	-433.58713	512.8949	-822.88745	-419.29037	500.0416	-728.44373	-555.87952	943.11267	-886.2171	-583.18799	1142.2076	-595.59625	-417.06317	909.29053	-200.38884	-441.06406	1007.2191	-203.46078	-832.21729	819.89673	-262.10522	-854.8006	918.16077	-238.46515
393	1.955	-610.06067	104.19515	-730.95837	-607.02911	118.20461	-676.04883	-433.87671	514.25122	-821.24255	-419.08414	501.48373	-726.72223	-561.39111	941.27368	-884.20154	-578.6203	1144.5952	-596.02557	-399.05084	919.1004	-204.9523	-421.00058	1015.9347	-210.52719	-819.6817	833.18866	-222.57747	-839.04694	933.00232	-201.80219
394	1.96	-609.93994	104.76796	-730.07831	-606.96228	118.16353	-675.64484	-434.39523	515.52911	-818.87054	-419.8743	502.64703	-723.93396	-565.96069	940.08063	-882.48907	-574.6463	1146.8033	-596.61865	-382.86203	927.76306	-209.79915	-403.24847	1023.7304	-217.42207	-804.32001	846.32178	-182.71104	-820.92511	947.31708	-164.45065
395	1.965	-609.97583	105.2293	-729.2215	-606.9491	118.0563	-675.05951	-434.95526	516.82465	-816.05328	-420.94177	503.65073	-720.69611	-570.03644	938.4823	-879.80188	-570.9021	1149.197	-597.26807	-368.2153	935.21515	-215.12129	-387.3063	1030.4329	-224.94751	-785.80676	860.09369	-142.11488	-799.94098	962.11554	-126.59377
396	1.97	-610.23529	105.37665	-728.4472	-607.18738	118.4189	-673.3338	-435.505	517.98572	-812.67926	-422.64365	504.47159	-716.82513	-573.16406	937.45154	-877.78485	-568.00909	1151.5005	-597.47406	-355.44781	941.66418	-220.64992	-373.28763	1035.9575	-232.55795	-764.09241	874.22803	-101.82153	-776.11719	977.05914	-88.870628
397	1.975	-610.47327	105.34974	-727.44623	-608.1333	117.07192	-673.07446	-436.20486	518.63586	-808.94104	-424.78552	505.05865	-712.5379	-575.94678	936.40924	-875.42004	-565.33234	1153.6414	-598.22485	-344.71884	947.14697	-226.08818	-361.40707	1040.4772	-239.82487	-739.17041	888.20233	-62.721611	-749.06543	991.651	-52.067364
398	1.98	-610.84363	105.24226	-726.43188	-608.26819	117.30674	-671.38776	-436.05066	519.96521	-805.00153	-427.25024	505.43106	-707.97931	-578.02197	935.80139	-873.27045	-562.92773	1155.7599	-599.03479	-336.05438	951.80341	-231.15865	-351.69504	1044.1034	-246.42709	-710.70502	902.79669	-22.871029	-718.96448	1006.7644	-13.877997
399	1.985	-611.125	104.76738	-725.10919	-608.96802	116.67712	-670.24768	-436.09973	520.62488	-800.82831	-429.96063	505.61386	-703.25079	-579.43793	935.49359	-871.8064	-560.83051	1157.8632	-599.90045	-329.43399	955.78223	-235.78568	-344.18427	1046.9078	-252.20415	-679.06793	917.71997	14.78359	-685.15881	1022.1553	22.217203
400	1.99	-611.65765	104.62872	-723.78296	-610.1123	116.13503	-668.1911	-435.9079	521.00824	-796.76135	-432.83673	505.65677	-698.4812	-580.18738	935.55756	-870.60425	-559.04352	1159.9642	-600.8045	-324.996	959.17664	-239.62468	-338.91052	1048.9998	-257.07269	-644.17731	932.51544	50.48584	-647.91522	1037.3394	56.355354
401	1.995	-612.29547	104.41595	-722.1485	-610.54626	115.0689	-667.43933	-435.87695	521.13477	-792.34772	-435.84094	505.63287	-693.84613	-581.01483	935.50476	-869.12573	-557.47137	1162.01	-601.7074	-323.45407	962.24438	-242.83969	-335.77856	1050.4161	-260.69879	-604.96149	947.91284	85.680946	-607.11859	1052.1066	88.408936
402	2	-612.85858	104.41068	-720.29102	-611.58716	116.10058	-663.02704	-435.72125	521.1449	-788.32629	-438.75504	505.54712	-689.41223	-581.58075	935.32904	-867.31549	-556.12384	1164.0043	-602.47345	-323.76053	964.86578	-245.00395	-334.92755	1051.3672	-262.94028	-563.18103	962.82611	115.66002	-562.68744	1066.5833	116.61489
403	2.005	-613.66217	104.62494	-718.56042	-611.44653	115.00043	-662.69861	-435.7999	521.21729	-784.35284	-441.58035	505.46341	-685.2934	-581.41858	935.98309	-866.93439	-555.02161	1166.0536	-603.03064	-326.37592	967.16687	-246.18463	-336.47433	1052.2421	-263.40323	-519.41919	976.91443	141.51265	-515.88373	1080.1711	140.3925
404	2.01	-614.10474	104.49015	-716.3009	-612.20868	114.62376	-660.40179	-436.42886	520.91913	-780.61102	-444.15714	505.39224	-681.54773	-581.04614	936.77966	-866.22839	-554.0835	1168.1198	-603.38617	-331.38126	968.98138	-246.29536	-340.3678	1053.0762	-262.5307	-472.35797	989.66504	163.51653	-467.01825	1091.7469	158.96307
405	2.015	-614.90991	105.03609	-714.50397	-612.63898	115.45775	-656.86957	-436.43341	521.17859	-777.81281	-446.36963	505.33282	-678.21735	-580.57562	937.40466	-864.33789	-553.22717	1170.1705	-603.35907	-339.48383	970.55841	-244.56395	-346.53915	1054.2539	-259.37637	-422.87732	1000.0361	178.41031	-417.40601	1100.8496	171.0175
406	2.02	-615.43585	105.26167	-712.36493	-612.47369	114.51773	-656.28503	-437.3049	520.90674	-775.04413	-448.23111	505.37665	-675.44189	-579.71667	938.336	-863.10376	-552.48932	1172.2025	-602.87	-346.97202	972.59149	-240.70534	-352.58151	1056.9365	-256.87714	-372.20538	1006.5575	185.66141	-369.05884	1107.3937	176.82927
407	2.025	-615.88214	105.52371	-710.38049	-612.03876	114.77264	-654.70081	-437.92606	521.37762	-773.01239	-449.69019	505.61411	-673.19458	-578.63794	939.35425	-860.76062	-551.67566	1174.1118	-601.74573	-353.01874	974.97253	-235.64879	-358.30115	1061.8489	-253.13094	-333.95856	1013.5145	182.86366	-328.9624	1109.2399	174.15182
408	2.03	-616.30835	105.94947	-708.56018	-612.02191	115.20551	-652.61212	-438.79239	521.75824	-771.60205	-450.68878	506.00113	-671.53497	-577.13116	940.5874	-858.78802	-550.77032	1175.9694	-599.90021	-355.27499	976.91687	-230.43292	-360.03403	1067.8972	-249.54501	-321.97363	1016.1075	179.11752	-307.68579	1111.829	165.8499
409	2.035	-616.67346	106.34785	-707.18127	-611.87909	115.41759	-651.10425	-440.39108	522.06433	-770.25989	-451.1658	506.4382	-670.30853	-575.73602	941.64398	-855.77942	-549.86102	1177.6771	-597.62354	-346.54068	981.21625	-229.05815	-350.37231	1071.683	-248.57445	-326.26816	1017.9571	179.79213	-305.10083	1113.673	166.12492
410	2.04	-616.94348	106.81715	-706.05273	-612.44324	116.53528	-648.18616	-442.04898	522.49042	-769.34113	-451.08463	506.86676	-669.40356	-574.51868	942.55115	-853.13489	-549.14868	1179.0702	-595.24719	-333.32343	983.89398	-232.61897	-337.9903	1073.6517	-249.74622	-334.78098	1018.3872	179.89651	-312.01917	1116.2065	170.37749
